<svg class="rich-terminal" viewBox="0 0 1238 830.8" xmlns="http://www.w3.org/2000/svg">
    <!-- Generated with Rich https://www.textualize.io -->
    <style>

    @font-face {
        font-family: "Fira Code";
        src: local("FiraCode-Regular"),
                url("https://cdnjs.cloudflare.com/ajax/libs/firacode/6.2.0/woff2/FiraCode-Regular.woff2") format("woff2"),
                url("https://cdnjs.cloudflare.com/ajax/libs/firacode/6.2.0/woff/FiraCode-Regular.woff") format("woff");
        font-style: normal;
        font-weight: 400;
    }
    @font-face {
        font-family: "Fira Code";
        src: local("FiraCode-Bold"),
                url("https://cdnjs.cloudflare.com/ajax/libs/firacode/6.2.0/woff2/FiraCode-Bold.woff2") format("woff2"),
                url("https://cdnjs.cloudflare.com/ajax/libs/firacode/6.2.0/woff/FiraCode-Bold.woff") format("woff");
        font-style: bold;
        font-weight: 700;
    }

    .terminal-665201933-matrix {
        font-family: Fira Code, monospace;
        font-size: 20px;
        line-height: 24.4px;
        font-variant-east-asian: full-width;
    }

    .terminal-665201933-title {
        font-size: 18px;
        font-weight: bold;
        font-family: arial;
    }

    .terminal-665201933-r1 { fill: #c5c8c6 }
.terminal-665201933-r2 { fill: #e0e0e0 }
.terminal-665201933-r3 { fill: #ffff00 }
.terminal-665201933-r4 { fill: #008000 }
.terminal-665201933-r5 { fill: #ff0000 }
.terminal-665201933-r6 { fill: #9e9e9e }
.terminal-665201933-r7 { fill: #a5a5a5 }
.terminal-665201933-r8 { fill: #a7abaf;font-weight: bold }
.terminal-665201933-r9 { fill: #4ebf71 }
.terminal-665201933-r10 { fill: #b3aba2 }
.terminal-665201933-r11 { fill: #a0a0a0 }
.terminal-665201933-r12 { fill: #6f6f6f }
.terminal-665201933-r13 { fill: #1e1e1e }
.terminal-665201933-r14 { fill: #ffa62b;font-weight: bold }
.terminal-665201933-r15 { fill: #495259 }
    </style>

    <defs>
    <clipPath id="terminal-665201933-clip-terminal">
      <rect x="0" y="0" width="1219.0" height="779.8" />
    </clipPath>
    <clipPath id="terminal-665201933-line-0">
    <rect x="0" y="1.5" width="1220" height="24.65"/>
            </clipPath>
<clipPath id="terminal-665201933-line-1">
    <rect x="0" y="25.9" width="1220" height="24.65"/>
            </clipPath>
<clipPath id="terminal-665201933-line-2">
    <rect x="0" y="50.3" width="1220" height="24.65"/>
            </clipPath>
<clipPath id="terminal-665201933-line-3">
    <rect x="0" y="74.7" width="1220" height="24.65"/>
            </clipPath>
<clipPath id="terminal-665201933-line-4">
    <rect x="0" y="99.1" width="1220" height="24.65"/>
            </clipPath>
<clipPath id="terminal-665201933-line-5">
    <rect x="0" y="123.5" width="1220" height="24.65"/>
            </clipPath>
<clipPath id="terminal-665201933-line-6">
    <rect x="0" y="147.9" width="1220" height="24.65"/>
            </clipPath>
<clipPath id="terminal-665201933-line-7">
    <rect x="0" y="172.3" width="1220" height="24.65"/>
            </clipPath>
<clipPath id="terminal-665201933-line-8">
    <rect x="0" y="196.7" width="1220" height="24.65"/>
            </clipPath>
<clipPath id="terminal-665201933-line-9">
    <rect x="0" y="221.1" width="1220" height="24.65"/>
            </clipPath>
<clipPath id="terminal-665201933-line-10">
    <rect x="0" y="245.5" width="1220" height="24.65"/>
            </clipPath>
<clipPath id="terminal-665201933-line-11">
    <rect x="0" y="269.9" width="1220" height="24.65"/>
            </clipPath>
<clipPath id="terminal-665201933-line-12">
    <rect x="0" y="294.3" width="1220" height="24.65"/>
            </clipPath>
<clipPath id="terminal-665201933-line-13">
    <rect x="0" y="318.7" width="1220" height="24.65"/>
            </clipPath>
<clipPath id="terminal-665201933-line-14">
    <rect x="0" y="343.1" width="1220" height="24.65"/>
            </clipPath>
<clipPath id="terminal-665201933-line-15">
    <rect x="0" y="367.5" width="1220" height="24.65"/>
            </clipPath>
<clipPath id="terminal-665201933-line-16">
    <rect x="0" y="391.9" width="1220" height="24.65"/>
            </clipPath>
<clipPath id="terminal-665201933-line-17">
    <rect x="0" y="416.3" width="1220" height="24.65"/>
            </clipPath>
<clipPath id="terminal-665201933-line-18">
    <rect x="0" y="440.7" width="1220" height="24.65"/>
            </clipPath>
<clipPath id="terminal-665201933-line-19">
    <rect x="0" y="465.1" width="1220" height="24.65"/>
            </clipPath>
<clipPath id="terminal-665201933-line-20">
    <rect x="0" y="489.5" width="1220" height="24.65"/>
            </clipPath>
<clipPath id="terminal-665201933-line-21">
    <rect x="0" y="513.9" width="1220" height="24.65"/>
            </clipPath>
<clipPath id="terminal-665201933-line-22">
    <rect x="0" y="538.3" width="1220" height="24.65"/>
            </clipPath>
<clipPath id="terminal-665201933-line-23">
    <rect x="0" y="562.7" width="1220" height="24.65"/>
            </clipPath>
<clipPath id="terminal-665201933-line-24">
    <rect x="0" y="587.1" width="1220" height="24.65"/>
            </clipPath>
<clipPath id="terminal-665201933-line-25">
    <rect x="0" y="611.5" width="1220" height="24.65"/>
            </clipPath>
<clipPath id="terminal-665201933-line-26">
    <rect x="0" y="635.9" width="1220" height="24.65"/>
            </clipPath>
<clipPath id="terminal-665201933-line-27">
    <rect x="0" y="660.3" width="1220" height="24.65"/>
            </clipPath>
<clipPath id="terminal-665201933-line-28">
    <rect x="0" y="684.7" width="1220" height="24.65"/>
            </clipPath>
<clipPath id="terminal-665201933-line-29">
    <rect x="0" y="709.1" width="1220" height="24.65"/>
            </clipPath>
<clipPath id="terminal-665201933-line-30">
    <rect x="0" y="733.5" width="1220" height="24.65"/>
            </clipPath>
    </defs>

    <rect fill="#292929" stroke="rgba(255,255,255,0.35)" stroke-width="1" x="1" y="1" width="1236" height="828.8" rx="8"/><text class="terminal-665201933-title" fill="#c5c8c6" text-anchor="middle" x="618" y="27">ArchBooster</text>
            <g transform="translate(26,22)">
            <circle cx="0" cy="0" r="7" fill="#ff5f57"/>
            <circle cx="22" cy="0" r="7" fill="#febc2e"/>
            <circle cx="44" cy="0" r="7" fill="#28c840"/>
            </g>
        
    <g transform="translate(9, 41)" clip-path="url(#terminal-665201933-clip-terminal)">
    <rect fill="#242f38" x="0" y="1.5" width="12.2" height="24.65" shape-rendering="crispEdges"/><rect fill="#242f38" x="12.2" y="1.5" width="12.2" height="24.65" shape-rendering="crispEdges"/><rect fill="#242f38" x="24.4" y="1.5" width="61" height="24.65" shape-rendering="crispEdges"/><rect fill="#242f38" x="85.4" y="1.5" width="12.2" height="24.65" shape-rendering="crispEdges"/><rect fill="#242f38" x="97.6" y="1.5" width="427" height="24.65" shape-rendering="crispEdges"/><rect fill="#242f38" x="524.6" y="1.5" width="134.2" height="24.65" shape-rendering="crispEdges"/><rect fill="#242f38" x="658.8" y="1.5" width="439.2" height="24.65" shape-rendering="crispEdges"/><rect fill="#242f38" x="1098" y="1.5" width="12.2" height="24.65" shape-rendering="crispEdges"/><rect fill="#242f38" x="1110.2" y="1.5" width="0" height="24.65" shape-rendering="crispEdges"/><rect fill="#242f38" x="1110.2" y="1.5" width="97.6" height="24.65" shape-rendering="crispEdges"/><rect fill="#242f38" x="1207.8" y="1.5" width="12.2" height="24.65" shape-rendering="crispEdges"/><rect fill="#1e1e1e" x="0" y="25.9" width="12.2" height="24.65" shape-rendering="crispEdges"/><rect fill="#1e1e1e" x="12.2" y="25.9" width="85.4" height="24.65" shape-rendering="crispEdges"/><rect fill="#1e1e1e" x="97.6" y="25.9" width="36.6" height="24.65" shape-rendering="crispEdges"/><rect fill="#1e1e1e" x="134.2" y="25.9" width="146.4" height="24.65" shape-rendering="crispEdges"/><rect fill="#1e1e1e" x="280.6" y="25.9" width="36.6" height="24.65" shape-rendering="crispEdges"/><rect fill="#1e1e1e" x="317.2" y="25.9" width="122" height="24.65" shape-rendering="crispEdges"/><rect fill="#1e1e1e" x="439.2" y="25.9" width="12.2" height="24.65" shape-rendering="crispEdges"/><rect fill="#1e1e1e" x="451.4" y="25.9" width="317.2" height="24.65" shape-rendering="crispEdges"/><rect fill="#1e1e1e" x="768.6" y="25.9" width="439.2" height="24.65" shape-rendering="crispEdges"/><rect fill="#1e1e1e" x="1207.8" y="25.9" width="12.2" height="24.65" shape-rendering="crispEdges"/><rect fill="#1e1e1e" x="0" y="50.3" width="12.2" height="24.65" shape-rendering="crispEdges"/><rect fill="#1e1e1e" x="12.2" y="50.3" width="12.2" height="24.65" shape-rendering="crispEdges"/><rect fill="#1e1e1e" x="24.4" y="50.3" width="24.4" height="24.65" shape-rendering="crispEdges"/><rect fill="#1e1e1e" x="48.8" y="50.3" width="85.4" height="24.65" shape-rendering="crispEdges"/><rect fill="#1e1e1e" x="134.2" y="50.3" width="585.6" height="24.65" shape-rendering="crispEdges"/><rect fill="#1e1e1e" x="719.8" y="50.3" width="85.4" height="24.65" shape-rendering="crispEdges"/><rect fill="#1e1e1e" x="805.2" y="50.3" width="280.6" height="24.65" shape-rendering="crispEdges"/><rect fill="#1e1e1e" x="1085.8" y="50.3" width="73.2" height="24.65" shape-rendering="crispEdges"/><rect fill="#1e1e1e" x="1159" y="50.3" width="48.8" height="24.65" shape-rendering="crispEdges"/><rect fill="#1e1e1e" x="1207.8" y="50.3" width="12.2" height="24.65" shape-rendering="crispEdges"/><rect fill="#242f38" x="0" y="74.7" width="12.2" height="24.65" shape-rendering="crispEdges"/><rect fill="#242f38" x="12.2" y="74.7" width="170.8" height="24.65" shape-rendering="crispEdges"/><rect fill="#242f38" x="183" y="74.7" width="1024.8" height="24.65" shape-rendering="crispEdges"/><rect fill="#242f38" x="1207.8" y="74.7" width="12.2" height="24.65" shape-rendering="crispEdges"/><rect fill="#412f17" x="0" y="99.1" width="12.2" height="24.65" shape-rendering="crispEdges"/><rect fill="#412f17" x="12.2" y="99.1" width="12.2" height="24.65" shape-rendering="crispEdges"/><rect fill="#412f17" x="24.4" y="99.1" width="24.4" height="24.65" shape-rendering="crispEdges"/><rect fill="#412f17" x="48.8" y="99.1" width="12.2" height="24.65" shape-rendering="crispEdges"/><rect fill="#412f17" x="61" y="99.1" width="97.6" height="24.65" shape-rendering="crispEdges"/><rect fill="#412f17" x="158.6" y="99.1" width="561.2" height="24.65" shape-rendering="crispEdges"/><rect fill="#412f17" x="719.8" y="99.1" width="158.6" height="24.65" shape-rendering="crispEdges"/><rect fill="#412f17" x="878.4" y="99.1" width="207.4" height="24.65" shape-rendering="crispEdges"/><rect fill="#412f17" x="1085.8" y="99.1" width="97.6" height="24.65" shape-rendering="crispEdges"/><rect fill="#412f17" x="1183.4" y="99.1" width="24.4" height="24.65" shape-rendering="crispEdges"/><rect fill="#412f17" x="1207.8" y="99.1" width="12.2" height="24.65" shape-rendering="crispEdges"/><rect fill="#121212" x="0" y="123.5" width="12.2" height="24.65" shape-rendering="crispEdges"/><rect fill="#121212" x="12.2" y="123.5" width="12.2" height="24.65" shape-rendering="crispEdges"/><rect fill="#121212" x="24.4" y="123.5" width="24.4" height="24.65" shape-rendering="crispEdges"/><rect fill="#121212" x="48.8" y="123.5" width="12.2" height="24.65" shape-rendering="crispEdges"/><rect fill="#121212" x="61" y="123.5" width="170.8" height="24.65" shape-rendering="crispEdges"/><rect fill="#121212" x="231.8" y="123.5" width="488" height="24.65" shape-rendering="crispEdges"/><rect fill="#121212" x="719.8" y="123.5" width="158.6" height="24.65" shape-rendering="crispEdges"/><rect fill="#121212" x="878.4" y="123.5" width="207.4" height="24.65" shape-rendering="crispEdges"/><rect fill="#121212" x="1085.8" y="123.5" width="97.6" height="24.65" shape-rendering="crispEdges"/><rect fill="#121212" x="1183.4" y="123.5" width="24.4" height="24.65" shape-rendering="crispEdges"/><rect fill="#121212" x="1207.8" y="123.5" width="12.2" height="24.65" shape-rendering="crispEdges"/><rect fill="#121212" x="0" y="147.9" width="12.2" height="24.65" shape-rendering="crispEdges"/><rect fill="#121212" x="12.2" y="147.9" width="24.4" height="24.65" shape-rendering="crispEdges"/><rect fill="#121212" x="36.6" y="147.9" width="12.2" height="24.65" shape-rendering="crispEdges"/><rect fill="#121212" x="48.8" y="147.9" width="12.2" height="24.65" shape-rendering="crispEdges"/><rect fill="#121212" x="61" y="147.9" width="97.6" height="24.65" shape-rendering="crispEdges"/><rect fill="#121212" x="158.6" y="147.9" width="341.6" height="24.65" shape-rendering="crispEdges"/><rect fill="#121212" x="500.2" y="147.9" width="219.6" height="24.65" shape-rendering="crispEdges"/><rect fill="#121212" x="719.8" y="147.9" width="353.8" height="24.65" shape-rendering="crispEdges"/><rect fill="#121212" x="1073.6" y="147.9" width="12.2" height="24.65" shape-rendering="crispEdges"/><rect fill="#121212" x="1085.8" y="147.9" width="97.6" height="24.65" shape-rendering="crispEdges"/><rect fill="#121212" x="1183.4" y="147.9" width="24.4" height="24.65" shape-rendering="crispEdges"/><rect fill="#121212" x="1207.8" y="147.9" width="12.2" height="24.65" shape-rendering="crispEdges"/><rect fill="#121212" x="0" y="172.3" width="12.2" height="24.65" shape-rendering="crispEdges"/><rect fill="#121212" x="12.2" y="172.3" width="24.4" height="24.65" shape-rendering="crispEdges"/><rect fill="#121212" x="36.6" y="172.3" width="12.2" height="24.65" shape-rendering="crispEdges"/><rect fill="#121212" x="48.8" y="172.3" width="12.2" height="24.65" shape-rendering="crispEdges"/><rect fill="#121212" x="61" y="172.3" width="85.4" height="24.65" shape-rendering="crispEdges"/><rect fill="#121212" x="146.4" y="172.3" width="341.6" height="24.65" shape-rendering="crispEdges"/><rect fill="#121212" x="488" y="172.3" width="231.8" height="24.65" shape-rendering="crispEdges"/><rect fill="#121212" x="719.8" y="172.3" width="231.8" height="24.65" shape-rendering="crispEdges"/><rect fill="#121212" x="951.6" y="172.3" width="134.2" height="24.65" shape-rendering="crispEdges"/><rect fill="#121212" x="1085.8" y="172.3" width="97.6" height="24.65" shape-rendering="crispEdges"/><rect fill="#121212" x="1183.4" y="172.3" width="24.4" height="24.65" shape-rendering="crispEdges"/><rect fill="#121212" x="1207.8" y="172.3" width="12.2" height="24.65" shape-rendering="crispEdges"/><rect fill="#242f38" x="0" y="196.7" width="12.2" height="24.65" shape-rendering="crispEdges"/><rect fill="#242f38" x="12.2" y="196.7" width="109.8" height="24.65" shape-rendering="crispEdges"/><rect fill="#242f38" x="122" y="196.7" width="1085.8" height="24.65" shape-rendering="crispEdges"/><rect fill="#242f38" x="1207.8" y="196.7" width="12.2" height="24.65" shape-rendering="crispEdges"/><rect fill="#121212" x="0" y="221.1" width="12.2" height="24.65" shape-rendering="crispEdges"/><rect fill="#121212" x="12.2" y="221.1" width="12.2" height="24.65" shape-rendering="crispEdges"/><rect fill="#121212" x="24.4" y="221.1" width="24.4" height="24.65" shape-rendering="crispEdges"/><rect fill="#121212" x="48.8" y="221.1" width="12.2" height="24.65" shape-rendering="crispEdges"/><rect fill="#121212" x="61" y="221.1" width="134.2" height="24.65" shape-rendering="crispEdges"/><rect fill="#121212" x="195.2" y="221.1" width="524.6" height="24.65" shape-rendering="crispEdges"/><rect fill="#121212" x="719.8" y="221.1" width="231.8" height="24.65" shape-rendering="crispEdges"/><rect fill="#121212" x="951.6" y="221.1" width="134.2" height="24.65" shape-rendering="crispEdges"/><rect fill="#121212" x="1085.8" y="221.1" width="36.6" height="24.65" shape-rendering="crispEdges"/><rect fill="#121212" x="1122.4" y="221.1" width="85.4" height="24.65" shape-rendering="crispEdges"/><rect fill="#121212" x="1207.8" y="221.1" width="12.2" height="24.65" shape-rendering="crispEdges"/><rect fill="#121212" x="0" y="245.5" width="12.2" height="24.65" shape-rendering="crispEdges"/><rect fill="#121212" x="12.2" y="245.5" width="12.2" height="24.65" shape-rendering="crispEdges"/><rect fill="#121212" x="24.4" y="245.5" width="24.4" height="24.65" shape-rendering="crispEdges"/><rect fill="#121212" x="48.8" y="245.5" width="12.2" height="24.65" shape-rendering="crispEdges"/><rect fill="#121212" x="61" y="245.5" width="170.8" height="24.65" shape-rendering="crispEdges"/><rect fill="#121212" x="231.8" y="245.5" width="488" height="24.65" shape-rendering="crispEdges"/><rect fill="#121212" x="719.8" y="245.5" width="353.8" height="24.65" shape-rendering="crispEdges"/><rect fill="#121212" x="1073.6" y="245.5" width="12.2" height="24.65" shape-rendering="crispEdges"/><rect fill="#121212" x="1085.8" y="245.5" width="36.6" height="24.65" shape-rendering="crispEdges"/><rect fill="#121212" x="1122.4" y="245.5" width="85.4" height="24.65" shape-rendering="crispEdges"/><rect fill="#121212" x="1207.8" y="245.5" width="12.2" height="24.65" shape-rendering="crispEdges"/><rect fill="#242f38" x="0" y="269.9" width="12.2" height="24.65" shape-rendering="crispEdges"/><rect fill="#242f38" x="12.2" y="269.9" width="158.6" height="24.65" shape-rendering="crispEdges"/><rect fill="#242f38" x="170.8" y="269.9" width="1037" height="24.65" shape-rendering="crispEdges"/><rect fill="#242f38" x="1207.8" y="269.9" width="12.2" height="24.65" shape-rendering="crispEdges"/><rect fill="#121212" x="0" y="294.3" width="12.2" height="24.65" shape-rendering="crispEdges"/><rect fill="#121212" x="12.2" y="294.3" width="12.2" height="24.65" shape-rendering="crispEdges"/><rect fill="#121212" x="24.4" y="294.3" width="24.4" height="24.65" shape-rendering="crispEdges"/><rect fill="#121212" x="48.8" y="294.3" width="12.2" height="24.65" shape-rendering="crispEdges"/><rect fill="#121212" x="61" y="294.3" width="231.8" height="24.65" shape-rendering="crispEdges"/><rect fill="#121212" x="292.8" y="294.3" width="427" height="24.65" shape-rendering="crispEdges"/><rect fill="#121212" x="719.8" y="294.3" width="305" height="24.65" shape-rendering="crispEdges"/><rect fill="#121212" x="1024.8" y="294.3" width="61" height="24.65" shape-rendering="crispEdges"/><rect fill="#121212" x="1085.8" y="294.3" width="85.4" height="24.65" shape-rendering="crispEdges"/><rect fill="#121212" x="1171.2" y="294.3" width="36.6" height="24.65" shape-rendering="crispEdges"/><rect fill="#121212" x="1207.8" y="294.3" width="12.2" height="24.65" shape-rendering="crispEdges"/><rect fill="#121212" x="0" y="318.7" width="12.2" height="24.65" shape-rendering="crispEdges"/><rect fill="#121212" x="12.2" y="318.7" width="12.2" height="24.65" shape-rendering="crispEdges"/><rect fill="#121212" x="24.4" y="318.7" width="24.4" height="24.65" shape-rendering="crispEdges"/><rect fill="#121212" x="48.8" y="318.7" width="12.2" height="24.65" shape-rendering="crispEdges"/><rect fill="#121212" x="61" y="318.7" width="170.8" height="24.65" shape-rendering="crispEdges"/><rect fill="#121212" x="231.8" y="318.7" width="488" height="24.65" shape-rendering="crispEdges"/><rect fill="#121212" x="719.8" y="318.7" width="207.4" height="24.65" shape-rendering="crispEdges"/><rect fill="#121212" x="927.2" y="318.7" width="158.6" height="24.65" shape-rendering="crispEdges"/><rect fill="#121212" x="1085.8" y="318.7" width="85.4" height="24.65" shape-rendering="crispEdges"/><rect fill="#121212" x="1171.2" y="318.7" width="36.6" height="24.65" shape-rendering="crispEdges"/><rect fill="#121212" x="1207.8" y="318.7" width="12.2" height="24.65" shape-rendering="crispEdges"/><rect fill="#121212" x="0" y="343.1" width="1220" height="24.65" shape-rendering="crispEdges"/><rect fill="#121212" x="0" y="367.5" width="1220" height="24.65" shape-rendering="crispEdges"/><rect fill="#121212" x="0" y="391.9" width="1220" height="24.65" shape-rendering="crispEdges"/><rect fill="#121212" x="0" y="416.3" width="1220" height="24.65" shape-rendering="crispEdges"/><rect fill="#121212" x="0" y="440.7" width="1220" height="24.65" shape-rendering="crispEdges"/><rect fill="#121212" x="0" y="465.1" width="1220" height="24.65" shape-rendering="crispEdges"/><rect fill="#121212" x="0" y="489.5" width="1220" height="24.65" shape-rendering="crispEdges"/><rect fill="#121212" x="0" y="513.9" width="1220" height="24.65" shape-rendering="crispEdges"/><rect fill="#121212" x="0" y="538.3" width="1220" height="24.65" shape-rendering="crispEdges"/><rect fill="#121212" x="0" y="562.7" width="1220" height="24.65" shape-rendering="crispEdges"/><rect fill="#121212" x="0" y="587.1" width="1220" height="24.65" shape-rendering="crispEdges"/><rect fill="#121212" x="0" y="611.5" width="1220" height="24.65" shape-rendering="crispEdges"/><rect fill="#121212" x="0" y="635.9" width="1220" height="24.65" shape-rendering="crispEdges"/><rect fill="#121212" x="0" y="660.3" width="1220" height="24.65" shape-rendering="crispEdges"/><rect fill="#121212" x="0" y="684.7" width="1220" height="24.65" shape-rendering="crispEdges"/><rect fill="#121212" x="0" y="709.1" width="1220" height="24.65" shape-rendering="crispEdges"/><rect fill="#121212" x="0" y="733.5" width="1220" height="24.65" shape-rendering="crispEdges"/><rect fill="#242f38" x="0" y="757.9" width="36.6" height="24.65" shape-rendering="crispEdges"/><rect fill="#242f38" x="36.6" y="757.9" width="61" height="24.65" shape-rendering="crispEdges"/><rect fill="#242f38" x="97.6" y="757.9" width="36.6" height="24.65" shape-rendering="crispEdges"/><rect fill="#242f38" x="134.2" y="757.9" width="97.6" height="24.65" shape-rendering="crispEdges"/><rect fill="#242f38" x="231.8" y="757.9" width="36.6" height="24.65" shape-rendering="crispEdges"/><rect fill="#242f38" x="268.4" y="757.9" width="109.8" height="24.65" shape-rendering="crispEdges"/><rect fill="#242f38" x="378.2" y="757.9" width="695.4" height="24.65" shape-rendering="crispEdges"/><rect fill="#242f38" x="1073.6" y="757.9" width="12.2" height="24.65" shape-rendering="crispEdges"/><rect fill="#242f38" x="1085.8" y="757.9" width="24.4" height="24.65" shape-rendering="crispEdges"/><rect fill="#242f38" x="1110.2" y="757.9" width="97.6" height="24.65" shape-rendering="crispEdges"/><rect fill="#242f38" x="1207.8" y="757.9" width="12.2" height="24.65" shape-rendering="crispEdges"/>
    <g class="terminal-665201933-matrix">
    <text class="terminal-665201933-r2" x="12.2" y="20" textLength="12.2" clip-path="url(#terminal-665201933-line-0)">⭘</text><text class="terminal-665201933-r2" x="524.6" y="20" textLength="134.2" clip-path="url(#terminal-665201933-line-0)">ArchBooster</text><text class="terminal-665201933-r1" x="1220" y="20" textLength="12.2" clip-path="url(#terminal-665201933-line-0)">
</text><text class="terminal-665201933-r3" x="12.2" y="44.4" textLength="85.4" clip-path="url(#terminal-665201933-line-1)">●&#160;5&#160;app</text><text class="terminal-665201933-r4" x="134.2" y="44.4" textLength="146.4" clip-path="url(#terminal-665201933-line-1)">●&#160;1&#160;optional</text><text class="terminal-665201933-r5" x="317.2" y="44.4" textLength="122" clip-path="url(#terminal-665201933-line-1)">●&#160;2&#160;system</text><text class="terminal-665201933-r6" x="451.4" y="44.4" textLength="317.2" clip-path="url(#terminal-665201933-line-1)">(press&#160;F&#160;for&#160;full&#160;upgrade)</text><text class="terminal-665201933-r1" x="1220" y="44.4" textLength="12.2" clip-path="url(#terminal-665201933-line-1)">
</text><text class="terminal-665201933-r7" x="12.2" y="68.8" textLength="12.2" clip-path="url(#terminal-665201933-line-2)">✓</text><text class="terminal-665201933-r7" x="48.8" y="68.8" textLength="85.4" clip-path="url(#terminal-665201933-line-2)">Package</text><text class="terminal-665201933-r7" x="719.8" y="68.8" textLength="85.4" clip-path="url(#terminal-665201933-line-2)">Version</text><text class="terminal-665201933-r7" x="1085.8" y="68.8" textLength="73.2" clip-path="url(#terminal-665201933-line-2)">Source</text><text class="terminal-665201933-r1" x="1220" y="68.8" textLength="12.2" clip-path="url(#terminal-665201933-line-2)">
</text><text class="terminal-665201933-r8" x="12.2" y="93.2" textLength="170.8" clip-path="url(#terminal-665201933-line-3)">──&#160;official&#160;──</text><text class="terminal-665201933-r1" x="1220" y="93.2" textLength="12.2" clip-path="url(#terminal-665201933-line-3)">
</text><text class="terminal-665201933-r9" x="12.2" y="117.6" textLength="12.2" clip-path="url(#terminal-665201933-line-4)">✓</text><text class="terminal-665201933-r3" x="48.8" y="117.6" textLength="12.2" clip-path="url(#terminal-665201933-line-4)">●</text><text class="terminal-665201933-r2" x="61" y="117.6" textLength="97.6" clip-path="url(#terminal-665201933-line-4)">&#160;firefox</text><text class="terminal-665201933-r10" x="719.8" y="117.6" textLength="158.6" clip-path="url(#terminal-665201933-line-4)">128.0&#160;→&#160;129.0</text><text class="terminal-665201933-r10" x="1085.8" y="117.6" textLength="97.6" clip-path="url(#terminal-665201933-line-4)">official</text><text class="terminal-665201933-r1" x="1220" y="117.6" textLength="12.2" clip-path="url(#terminal-665201933-line-4)">
</text><text class="terminal-665201933-r9" x="12.2" y="142" textLength="12.2" clip-path="url(#terminal-665201933-line-5)">✓</text><text class="terminal-665201933-r4" x="48.8" y="142" textLength="12.2" clip-path="url(#terminal-665201933-line-5)">●</text><text class="terminal-665201933-r2" x="61" y="142" textLength="170.8" clip-path="url(#terminal-665201933-line-5)">&#160;ttf-fira-code</text><text class="terminal-665201933-r11" x="719.8" y="142" textLength="158.6" clip-path="url(#terminal-665201933-line-5)">6.2-1&#160;→&#160;6.2-2</text><text class="terminal-665201933-r11" x="1085.8" y="142" textLength="97.6" clip-path="url(#terminal-665201933-line-5)">official</text><text class="terminal-665201933-r1" x="1220" y="142" textLength="12.2" clip-path="url(#terminal-665201933-line-5)">
</text><text class="terminal-665201933-r9" x="12.2" y="166.4" textLength="12.2" clip-path="url(#terminal-665201933-line-6)">🔒</text><text class="terminal-665201933-r5" x="48.8" y="166.4" textLength="12.2" clip-path="url(#terminal-665201933-line-6)">●</text><text class="terminal-665201933-r11" x="61" y="166.4" textLength="97.6" clip-path="url(#terminal-665201933-line-6)">&#160;linux&#160;&#160;</text><text class="terminal-665201933-r12" x="158.6" y="166.4" textLength="341.6" clip-path="url(#terminal-665201933-line-6)">(system&#160;·&#160;Full&#160;upgrade&#160;only)</text><text class="terminal-665201933-r11" x="719.8" y="166.4" textLength="353.8" clip-path="url(#terminal-665201933-line-6)">6.9.3.arch1-1&#160;→&#160;6.9.4.arch1-1</text><text class="terminal-665201933-r11" x="1085.8" y="166.4" textLength="97.6" clip-path="url(#terminal-665201933-line-6)">official</text><text class="terminal-665201933-r1" x="1220" y="166.4" textLength="12.2" clip-path="url(#terminal-665201933-line-6)">
</text><text class="terminal-665201933-r9" x="12.2" y="190.8" textLength="12.2" clip-path="url(#terminal-665201933-line-7)">🔒</text><text class="terminal-665201933-r5" x="48.8" y="190.8" textLength="12.2" clip-path="url(#terminal-665201933-line-7)">●</text><text class="terminal-665201933-r11" x="61" y="190.8" textLength="85.4" clip-path="url(#terminal-665201933-line-7)">&#160;mesa&#160;&#160;</text><text class="terminal-665201933-r12" x="146.4" y="190.8" textLength="341.6" clip-path="url(#terminal-665201933-line-7)">(system&#160;·&#160;Full&#160;upgrade&#160;only)</text><text class="terminal-665201933-r11" x="719.8" y="190.8" textLength="231.8" clip-path="url(#terminal-665201933-line-7)">24.1.2-1&#160;→&#160;24.1.3-1</text><text class="terminal-665201933-r11" x="1085.8" y="190.8" textLength="97.6" clip-path="url(#terminal-665201933-line-7)">official</text><text class="terminal-665201933-r1" x="1220" y="190.8" textLength="12.2" clip-path="url(#terminal-665201933-line-7)">
</text><text class="terminal-665201933-r8" x="12.2" y="215.2" textLength="109.8" clip-path="url(#terminal-665201933-line-8)">──&#160;AUR&#160;──</text><text class="terminal-665201933-r1" x="1220" y="215.2" textLength="12.2" clip-path="url(#terminal-665201933-line-8)">
</text><text class="terminal-665201933-r9" x="12.2" y="239.6" textLength="12.2" clip-path="url(#terminal-665201933-line-9)">✓</text><text class="terminal-665201933-r3" x="48.8" y="239.6" textLength="12.2" clip-path="url(#terminal-665201933-line-9)">●</text><text class="terminal-665201933-r2" x="61" y="239.6" textLength="134.2" clip-path="url(#terminal-665201933-line-9)">&#160;cursor-bin</text><text class="terminal-665201933-r11" x="719.8" y="239.6" textLength="231.8" clip-path="url(#terminal-665201933-line-9)">0.40.3-1&#160;→&#160;0.41.0-1</text><text class="terminal-665201933-r11" x="1085.8" y="239.6" textLength="36.6" clip-path="url(#terminal-665201933-line-9)">AUR</text><text class="terminal-665201933-r1" x="1220" y="239.6" textLength="12.2" clip-path="url(#terminal-665201933-line-9)">
</text><text class="terminal-665201933-r9" x="12.2" y="264" textLength="12.2" clip-path="url(#terminal-665201933-line-10)">✓</text><text class="terminal-665201933-r3" x="48.8" y="264" textLength="12.2" clip-path="url(#terminal-665201933-line-10)">●</text><text class="terminal-665201933-r2" x="61" y="264" textLength="170.8" clip-path="url(#terminal-665201933-line-10)">&#160;google-chrome</text><text class="terminal-665201933-r11" x="719.8" y="264" textLength="353.8" clip-path="url(#terminal-665201933-line-10)">126.0.6478.11&#160;→&#160;126.0.6478.12</text><text class="terminal-665201933-r11" x="1085.8" y="264" textLength="36.6" clip-path="url(#terminal-665201933-line-10)">AUR</text><text class="terminal-665201933-r1" x="1220" y="264" textLength="12.2" clip-path="url(#terminal-665201933-line-10)">
</text><text class="terminal-665201933-r8" x="12.2" y="288.4" textLength="158.6" clip-path="url(#terminal-665201933-line-11)">──&#160;Flatpak&#160;──</text><text class="terminal-665201933-r1" x="1220" y="288.4" textLength="12.2" clip-path="url(#terminal-665201933-line-11)">
</text><text class="terminal-665201933-r9" x="12.2" y="312.8" textLength="12.2" clip-path="url(#terminal-665201933-line-12)">✓</text><text class="terminal-665201933-r3" x="48.8" y="312.8" textLength="12.2" clip-path="url(#terminal-665201933-line-12)">●</text><text class="terminal-665201933-r2" x="61" y="312.8" textLength="231.8" clip-path="url(#terminal-665201933-line-12)">&#160;com.spotify.Client</text><text class="terminal-665201933-r11" x="719.8" y="312.8" textLength="305" clip-path="url(#terminal-665201933-line-12)">1.2.31.1205&#160;→&#160;1.2.33.1113</text><text class="terminal-665201933-r11" x="1085.8" y="312.8" textLength="85.4" clip-path="url(#terminal-665201933-line-12)">Flatpak</text><text class="terminal-665201933-r1" x="1220" y="312.8" textLength="12.2" clip-path="url(#terminal-665201933-line-12)">
</text><text class="terminal-665201933-r9" x="12.2" y="337.2" textLength="12.2" clip-path="url(#terminal-665201933-line-13)">✓</text><text class="terminal-665201933-r3" x="48.8" y="337.2" textLength="12.2" clip-path="url(#terminal-665201933-line-13)">●</text><text class="terminal-665201933-r2" x="61" y="337.2" textLength="170.8" clip-path="url(#terminal-665201933-line-13)">&#160;org.gimp.GIMP</text><text class="terminal-665201933-r11" x="719.8" y="337.2" textLength="207.4" clip-path="url(#terminal-665201933-line-13)">2.10.36&#160;→&#160;2.10.38</text><text class="terminal-665201933-r11" x="1085.8" y="337.2" textLength="85.4" clip-path="url(#terminal-665201933-line-13)">Flatpak</text><text class="terminal-665201933-r1" x="1220" y="337.2" textLength="12.2" clip-path="url(#terminal-665201933-line-13)">
</text><text class="terminal-665201933-r1" x="1220" y="361.6" textLength="12.2" clip-path="url(#terminal-665201933-line-14)">
</text><text class="terminal-665201933-r1" x="1220" y="386" textLength="12.2" clip-path="url(#terminal-665201933-line-15)">
</text><text class="terminal-665201933-r1" x="1220" y="410.4" textLength="12.2" clip-path="url(#terminal-665201933-line-16)">
</text><text class="terminal-665201933-r1" x="1220" y="434.8" textLength="12.2" clip-path="url(#terminal-665201933-line-17)">
</text><text class="terminal-665201933-r1" x="1220" y="459.2" textLength="12.2" clip-path="url(#terminal-665201933-line-18)">
</text><text class="terminal-665201933-r1" x="1220" y="483.6" textLength="12.2" clip-path="url(#terminal-665201933-line-19)">
</text><text class="terminal-665201933-r1" x="1220" y="508" textLength="12.2" clip-path="url(#terminal-665201933-line-20)">
</text><text class="terminal-665201933-r1" x="1220" y="532.4" textLength="12.2" clip-path="url(#terminal-665201933-line-21)">
</text><text class="terminal-665201933-r1" x="1220" y="556.8" textLength="12.2" clip-path="url(#terminal-665201933-line-22)">
</text><text class="terminal-665201933-r1" x="1220" y="581.2" textLength="12.2" clip-path="url(#terminal-665201933-line-23)">
</text><text class="terminal-665201933-r1" x="1220" y="605.6" textLength="12.2" clip-path="url(#terminal-665201933-line-24)">
</text><text class="terminal-665201933-r1" x="1220" y="630" textLength="12.2" clip-path="url(#terminal-665201933-line-25)">
</text><text class="terminal-665201933-r1" x="1220" y="654.4" textLength="12.2" clip-path="url(#terminal-665201933-line-26)">
</text><text class="terminal-665201933-r1" x="1220" y="678.8" textLength="12.2" clip-path="url(#terminal-665201933-line-27)">
</text><text class="terminal-665201933-r1" x="1220" y="703.2" textLength="12.2" clip-path="url(#terminal-665201933-line-28)">
</text><text class="terminal-665201933-r1" x="1220" y="727.6" textLength="12.2" clip-path="url(#terminal-665201933-line-29)">
</text><text class="terminal-665201933-r13" x="0" y="752" textLength="1220" clip-path="url(#terminal-665201933-line-30)">────────────────────────────────────────────────────────────────────────────────────────────────────</text><text class="terminal-665201933-r1" x="1220" y="752" textLength="12.2" clip-path="url(#terminal-665201933-line-30)">
</text><text class="terminal-665201933-r14" x="0" y="776.4" textLength="36.6" clip-path="url(#terminal-665201933-line-31)">&#160;q&#160;</text><text class="terminal-665201933-r2" x="36.6" y="776.4" textLength="61" clip-path="url(#terminal-665201933-line-31)">Quit&#160;</text><text class="terminal-665201933-r14" x="97.6" y="776.4" textLength="36.6" clip-path="url(#terminal-665201933-line-31)">&#160;h&#160;</text><text class="terminal-665201933-r2" x="134.2" y="776.4" textLength="97.6" clip-path="url(#terminal-665201933-line-31)">History&#160;</text><text class="terminal-665201933-r14" x="231.8" y="776.4" textLength="36.6" clip-path="url(#terminal-665201933-line-31)">&#160;s&#160;</text><text class="terminal-665201933-r2" x="268.4" y="776.4" textLength="109.8" clip-path="url(#terminal-665201933-line-31)">Settings&#160;</text><text class="terminal-665201933-r15" x="1073.6" y="776.4" textLength="12.2" clip-path="url(#terminal-665201933-line-31)">▏</text><text class="terminal-665201933-r14" x="1085.8" y="776.4" textLength="24.4" clip-path="url(#terminal-665201933-line-31)">^p</text><text class="terminal-665201933-r2" x="1110.2" y="776.4" textLength="97.6" clip-path="url(#terminal-665201933-line-31)">&#160;palette</text>
    </g>
    </g>
</svg>
